<svg id="laptop-1" width="1196" height="1249" viewBox="0 0 1196 1249" fill="none" xmlns="http://www.w3.org/2000/svg">
<style xmlns="http://www.w3.org/2000/svg" type="text/css">
#laptop-1 #svg_1, #laptop-1 #svg_2, #laptop-1 #svg_3, #laptop-1 #svg_4, #laptop-1 #svg_5, #laptop-1 #svg_6, #laptop-1 #svg_7, #laptop-1 #svg_8, #laptop-1 #svg_9, #laptop-1 #svg_10, #laptop-1 #svg_11 {
      width: 0;
}
#laptop-1.is-active #svg_1 {
  animation-name: svg_1;
  animation-duration: 0.8s;
  animation-fill-mode: forwards;
  animation-delay: 1s;
  animation-iteration-count: 1;
  
}
@keyframes svg_1 {
  0% {
    width: 0;
  }
  20% {
    width: 161.686px;
  }
  100% {
    width: 161.686px;
  }
}
#laptop-1.is-active #svg_2 {
  animation-name: svg_2;
  animation-duration: 0.8s;
  animation-fill-mode: forwards;
  animation-delay: 1.1s;
  animation-iteration-count: 1;
  
}
@keyframes svg_2 {
  0% {
    width: 0;
  }
  20% {
    width: 76.316px;
  }
  100% {
    width: 76.316px;
  }
}
#laptop-1.is-active #svg_3 {
  animation-name: svg_3;
  animation-duration: 0.8s;
  animation-fill-mode: forwards;
  animation-delay: 1.2s;
  animation-iteration-count: 1;
  
}
@keyframes svg_3 {
  0% {
    width: 0;
  }
  20% {
    width: 76.316px;
  }
  100% {
    width: 76.316px;
  }
}
#laptop-1.is-active #svg_4 {
  animation-name: svg_4;
  animation-duration: 0.8s;
  animation-fill-mode: forwards;
  animation-delay: 1.3s;
  animation-iteration-count: 1;
  
}
@keyframes svg_4 {
  0% {
    width: 0;
  }
  20% {
    width: 76.316px;
  }
  100% {
    width: 76.316px;
  }
}
#laptop-1.is-active #svg_5 {
  animation-name: svg_5;
  animation-duration: 0.8s;
  animation-fill-mode: forwards;
  animation-delay: 1.4s;
  animation-iteration-count: 1;
  
}
@keyframes svg_5 {
  0% {
    width: 0;
  }
  20% {
    width: 76.316px;
  }
  100% {
    width: 76.316px;
  }
}
#laptop-1.is-active #svg_6 {
  animation-name: svg_6;
  animation-duration: 0.8s;
  animation-fill-mode: forwards;
  animation-delay: 1.5s;
  animation-iteration-count: 1;
  
}
@keyframes svg_6 {
  0% {
    width: 0;
  }
  20% {
    width: 214.72px;
  }
  100% {
    width: 214.72px;
  }
}
#laptop-1.is-active #svg_7 {
  animation-name: svg_7;
  animation-duration: 0.8s;
  animation-fill-mode: forwards;
  animation-delay: 1.6s;
  animation-iteration-count: 1;
  
}
@keyframes svg_7{
  0% {
    width: 0;
  }
  20% {
    width: 161.686px;
  }
  100% {
    width: 161.686px;
  }
}
#laptop-1.is-active #svg_8{
  animation-name: svg_8;
  animation-duration: 0.8s;
  animation-fill-mode: forwards;
  animation-delay: 1.7s;
  animation-iteration-count: 1;
  
}
@keyframes svg_8 {
  0% {
    width: 0;
  }
  20% {
    width: 161.686px;
  }
  100% {
    width: 161.686px;
  }
}
#laptop-1.is-active #svg_9 {
  animation-name: svg_9;
  animation-duration: 0.8s;
  animation-fill-mode: forwards;
  animation-delay: 1.8s;
  animation-iteration-count: 1;
  
}
@keyframes svg_9 {
  0% {
    width: 0;
  }
  20% {
    width: 76.316px;
  }
  100% {
    width: 76.316px;
  }
}
#laptop-1.is-active #svg_10 {
  animation-name: svg_10;
  animation-duration: 0.8s;
  animation-fill-mode: forwards;
  animation-delay: 1.9s;
  animation-iteration-count: 1;
  
}
@keyframes svg_10 {
  0% {
    width: 0;
  }
  20% {
    width: 214.72px;
  }
  100% {
    width: 214.72px;
  }
}
#laptop-1.is-active #svg_11 {
  animation-name: svg_11;
  animation-duration: 0.8s;
  animation-fill-mode: forwards;
  animation-delay: 2s;
  animation-iteration-count: 1;
  
}
@keyframes svg_11 {
  0% {
    width: 0;
  }
  20% {
    width: 214.72px;
  }
  100% {
    width: 214.72px;
  }
}

#laptop-1.is-active .svg_key {
  animation-name: svg_key_fill;
  animation-delay: 1s;
  animation-iteration-count: 1;
}
#laptop-1.is-active #svg_key_1 {
  animation-duration: 0.2s;
}
#laptop-1.is-active #svg_key_2 {
  animation-duration: 0.3s;
}
#laptop-1.is-active #svg_key_3{
  animation-duration: 0.4s;
}
#laptop-1.is-active #svg_key_4{
  animation-duration: 0.5s;
}
#laptop-1.is-active #svg_key_5{
  animation-duration: 0.6s;
}
#laptop-1.is-active #svg_key_6{
  animation-duration: 0.7s;
}
#laptop-1.is-active #svg_key_7{
  animation-duration: 0.8s;
}
#laptop-1.is-active #svg_key_8{
  animation-duration: 0.9s;
}
#laptop-1.is-active #svg_key_9{
  animation-duration: 1s;
}
#laptop-1.is-active #svg_key_10{
  animation-duration: 1.1s;
}
#laptop-1.is-active #svg_key_11{
  animation-duration: 1.2s;
}
#laptop-1.is-active #svg_key_12{
  animation-duration: 1.3s;
}
#laptop-1.is-active #svg_key_13{
  animation-duration: 1.4s;
}
#laptop-1.is-active #svg_key_14{
  animation-duration: 1.5s;
}
#laptop-1.is-active #svg_key_15{
  animation-duration: 1.6s;
}
#laptop-1.is-active #svg_key_16{
  animation-duration: 1.7s;
}
#laptop-1.is-active #svg_key_17{
  animation-duration: 1.8s;
}
#laptop-1.is-active #svg_key_18{
  animation-duration: 1.9s;
}
#laptop-1.is-active #svg_key_19{
  animation-duration: 2s;
}
#laptop-1.is-active #svg_key_20{
  animation-duration: 2.1s;
}
#laptop-1.is-active #svg_key_21{
  animation-duration: 2.2s;
}
#laptop-1.is-active #svg_key_22{
  animation-duration: 2.3s;
}
#laptop-1.is-active #svg_key_23{
  animation-duration: 2.4s;
}
#laptop-1.is-active #svg_key_24{
  animation-duration: 2.5s;
}
#laptop-1.is-active #svg_key_25{
  animation-duration: 2.6s;
}
#laptop-1.is-active #svg_key_26{
  animation-duration: 2.7s;
}
#laptop-1.is-active #svg_key_27{
  animation-duration: 2.8s;
}
#laptop-1.is-active #svg_key_28{
  animation-duration: 2.9s;
}
#laptop-1.is-active #svg_key_29{
  animation-duration: 3s;
}
#laptop-1.is-active #svg_key_30{
  animation-duration: 3.1s;
}

@keyframes svg_key_fill {
  0% {
    fill: #242424;
  }
  50% {
    fill: #171717;
  }
  100% {
    fill: #242424;
  }
}
</style>
<rect width="840.77" height="517.397" transform="matrix(0.866025 0.5 -0.866025 0.5 448.079 550.238)" fill="#0D0D0D"/>
<rect width="294.916" height="157.806" rx="7.69264" transform="matrix(0.866025 0.5 -0.866025 0.5 395.431 853.562)" fill="#242424" class="svg_key"/>
<rect width="51.7397" height="38.8048" rx="7.69264" transform="matrix(0.866025 0.5 -0.866025 0.5 383.109 626.554)" fill="#242424" class="svg_key"/>
<rect id="svg_key_10" width="51.7397" height="38.8048" rx="7.69264" transform="matrix(0.866025 0.5 -0.866025 0.5 427.917 600.684)" fill="#242424" class="svg_key"/>
<rect width="51.7397" height="38.8048" rx="7.69264" transform="matrix(0.866025 0.5 -0.866025 0.5 607.148 755.904)" fill="#242424" class="svg_key"/>
<rect id="svg_key_1" width="51.7397" height="38.8048" rx="7.69264" transform="matrix(0.866025 0.5 -0.866025 0.5 651.956 730.034)" fill="#242424" class="svg_key"/>
<rect width="51.7397" height="38.8048" rx="7.69264" transform="matrix(0.866025 0.5 -0.866025 0.5 831.187 885.253)" fill="#242424" class="svg_key"/>
<rect id="svg_key_11" width="51.7397" height="38.8048" rx="7.69264" transform="matrix(0.866025 0.5 -0.866025 0.5 875.996 859.383)" fill="#242424" class="svg_key"/>
<rect width="51.7397" height="38.8048" rx="7.69264" transform="matrix(0.866025 0.5 -0.866025 0.5 293.493 678.294)" fill="#242424" class="svg_key"/>
<rect width="51.7397" height="38.8048" rx="7.69264" transform="matrix(0.866025 0.5 -0.866025 0.5 517.533 807.643)" fill="#242424" class="svg_key"/>
<rect width="51.7397" height="38.8048" rx="7.69264" transform="matrix(0.866025 0.5 -0.866025 0.5 741.572 936.992)" fill="#242424" class="svg_key"/>
<rect id="svg_key_12" width="116.414" height="38.8048" rx="7.69264" transform="matrix(0.866025 0.5 -0.866025 0.5 338.302 652.424)" fill="#242424" class="svg_key"/>
<rect id="svg_key_13" width="51.7397" height="38.8048" rx="7.69264" transform="matrix(0.866025 0.5 -0.866025 0.5 562.341 781.773)" fill="#242424" class="svg_key"/>
<rect id="svg_key_14" width="51.7397" height="38.8048" rx="7.69264" transform="matrix(0.866025 0.5 -0.866025 0.5 786.38 911.122)" fill="#242424" class="svg_key"/>
<rect id="svg_key_15" width="51.7397" height="38.8048" rx="7.69264" transform="matrix(0.866025 0.5 -0.866025 0.5 248.686 704.164)" fill="#242424" class="svg_key"/>
<rect id="svg_key_16" width="245.763" height="38.8048" rx="7.69264" transform="matrix(0.866025 0.5 -0.866025 0.5 472.724 833.513)" fill="#242424" class="svg_key"/>
<rect id="svg_key_17" width="51.7397" height="38.8048" rx="7.69264" transform="matrix(0.866025 0.5 -0.866025 0.5 696.765 962.862)" fill="#242424" class="svg_key"/>
<rect id="svg_key_18" width="51.7397" height="38.8048" rx="7.69264" transform="matrix(0.866025 0.5 -0.866025 0.5 495.128 691.229)" fill="#242424" class="svg_key"/>
<rect id="svg_key_19" width="51.7397" height="38.8048" rx="7.69264" transform="matrix(0.866025 0.5 -0.866025 0.5 539.937 665.359)" fill="#242424" class="svg_key"/>
<rect id="svg_key_20" width="51.7397" height="38.8048" rx="7.69264" transform="matrix(0.866025 0.5 -0.866025 0.5 719.168 820.578)" fill="#242424" class="svg_key"/>
<rect id="svg_key_21" width="51.7397" height="38.8048" rx="7.69264" transform="matrix(0.866025 0.5 -0.866025 0.5 763.976 794.708)" fill="#242424" class="svg_key"/>
<rect id="svg_key_22" width="51.7397" height="38.8048" rx="7.69264" transform="matrix(0.866025 0.5 -0.866025 0.5 943.208 949.927)" fill="#242424" class="svg_key"/>
<rect id="svg_key_23" width="51.7397" height="38.8048" rx="7.69264" transform="matrix(0.866025 0.5 -0.866025 0.5 988.015 924.058)" fill="#242424" class="svg_key"/>
<rect id="svg_key_24" width="51.7397" height="38.8048" rx="7.69264" transform="matrix(0.866025 0.5 -0.866025 0.5 405.513 742.969)" fill="#242424" class="svg_key"/>
<rect id="svg_key_25" width="51.7397" height="38.8048" rx="7.69264" transform="matrix(0.866025 0.5 -0.866025 0.5 629.552 872.318)" fill="#242424" class="svg_key"/>
<rect id="svg_key_26" width="51.7397" height="38.8048" rx="7.69264" transform="matrix(0.866025 0.5 -0.866025 0.5 853.591 1001.67)" fill="#242424" class="svg_key"/>
<rect id="svg_key_27" width="51.7397" height="38.8048" rx="7.69264" transform="matrix(0.866025 0.5 -0.866025 0.5 450.32 717.099)" fill="#242424" class="svg_key"/>
<rect id="svg_key_28" width="51.7397" height="38.8048" rx="7.69264" transform="matrix(0.866025 0.5 -0.866025 0.5 674.359 846.448)" fill="#242424" class="svg_key"/>
<rect id="svg_key_29" width="51.7397" height="38.8048" rx="7.69264" transform="matrix(0.866025 0.5 -0.866025 0.5 360.704 768.839)" fill="#242424" class="svg_key"/>
<rect id="svg_key_30" width="51.7397" height="38.8048" rx="7.69264" transform="matrix(0.866025 0.5 -0.866025 0.5 808.783 1027.54)" fill="#242424" class="svg_key"/>
<rect id="svg_key_2" width="51.7397" height="38.8048" rx="7.69264" transform="matrix(0.866025 0.5 -0.866025 0.5 439.12 658.892)" fill="#242424" class="svg_key"/>
<rect width="51.7397" height="38.8048" rx="7.69264" transform="matrix(0.866025 0.5 -0.866025 0.5 483.927 633.022)" fill="#242424" class="svg_key"/>
<rect width="51.7397" height="38.8048" rx="7.69264" transform="matrix(0.866025 0.5 -0.866025 0.5 663.159 788.241)" fill="#242424" class="svg_key"/>
<rect id="svg_key_3" width="51.7397" height="38.8048" rx="7.69264" transform="matrix(0.866025 0.5 -0.866025 0.5 707.966 762.371)" fill="#242424" class="svg_key"/>
<rect width="51.7397" height="38.8048" rx="7.69264" transform="matrix(0.866025 0.5 -0.866025 0.5 887.197 917.59)" fill="#242424" class="svg_key"/>
<rect width="51.7397" height="38.8048" rx="7.69264" transform="matrix(0.866025 0.5 -0.866025 0.5 932.004 891.72)" fill="#242424" class="svg_key"/>
<rect width="51.7397" height="38.8048" rx="7.69264" transform="matrix(0.866025 0.5 -0.866025 0.5 349.503 710.631)" fill="#242424" class="svg_key"/>
<rect width="51.7397" height="38.8048" rx="7.69264" transform="matrix(0.866025 0.5 -0.866025 0.5 573.542 839.98)" fill="#242424" class="svg_key"/>
<rect width="51.7397" height="38.8048" rx="7.69264" transform="matrix(0.866025 0.5 -0.866025 0.5 797.583 969.33)" fill="#242424" class="svg_key"/>
<rect width="51.7397" height="38.8048" rx="7.69264" transform="matrix(0.866025 0.5 -0.866025 0.5 618.351 814.111)" fill="#242424" class="svg_key"/>
<rect id="svg_key_4" width="51.7397" height="38.8048" rx="7.69264" transform="matrix(0.866025 0.5 -0.866025 0.5 842.39 943.46)" fill="#242424" class="svg_key"/>
<rect width="51.7397" height="38.8048" rx="7.69264" transform="matrix(0.866025 0.5 -0.866025 0.5 304.695 736.501)" fill="#242424" class="svg_key"/>
<rect width="51.7397" height="38.8048" rx="7.69264" transform="matrix(0.866025 0.5 -0.866025 0.5 752.773 995.2)" fill="#242424" class="svg_key"/>
<rect width="51.7397" height="38.8048" rx="7.69264" transform="matrix(0.866025 0.5 -0.866025 0.5 551.138 723.566)" fill="#242424" class="svg_key"/>
<rect width="51.7397" height="38.8048" rx="7.69264" transform="matrix(0.866025 0.5 -0.866025 0.5 595.945 697.697)" fill="#242424" class="svg_key"/>
<rect width="51.7397" height="38.8048" rx="7.69264" transform="matrix(0.866025 0.5 -0.866025 0.5 775.179 852.915)" fill="#242424" class="svg_key"/>
<rect width="51.7397" height="38.8048" rx="7.69264" transform="matrix(0.866025 0.5 -0.866025 0.5 819.986 827.046)" fill="#242424" class="svg_key"/>
<rect width="51.7397" height="38.8048" rx="7.69264" transform="matrix(0.866025 0.5 -0.866025 0.5 999.217 982.265)" fill="#242424" class="svg_key"/>
<rect width="51.7397" height="38.8048" rx="7.69264" transform="matrix(0.866025 0.5 -0.866025 0.5 1044.02 956.395)" fill="#242424" class="svg_key"/>
<rect id="svg_key_5"  width="51.7397" height="38.8048" rx="7.69264" transform="matrix(0.866025 0.5 -0.866025 0.5 461.523 775.306)" fill="#242424" class="svg_key"/>
<rect id="svg_key_6" width="51.7397" height="38.8048" rx="7.69264" transform="matrix(0.866025 0.5 -0.866025 0.5 685.562 904.655)" fill="#242424" class="svg_key"/>
<rect id="svg_key_7" width="51.7397" height="38.8048" rx="7.69264" transform="matrix(0.866025 0.5 -0.866025 0.5 909.601 1034)" fill="#242424" class="svg_key"/>
<rect width="51.7397" height="38.8048" rx="7.69264" transform="matrix(0.866025 0.5 -0.866025 0.5 506.331 749.436)" fill="#242424" class="svg_key"/>
<rect id="svg_key_8" width="51.7397" height="38.8048" rx="7.69264" transform="matrix(0.866025 0.5 -0.866025 0.5 730.37 878.785)" fill="#242424" class="svg_key"/>
<rect width="116.414" height="38.8048" rx="7.69264" transform="matrix(0.866025 0.5 -0.866025 0.5 898.4 975.797)" fill="#242424" class="svg_key"/>
<rect id="svg_key_9" width="51.7397" height="38.8048" rx="7.69264" transform="matrix(0.866025 0.5 -0.866025 0.5 416.714 801.176)" fill="#242424" class="svg_key"/>
<rect width="51.7397" height="38.8048" rx="7.69264" transform="matrix(0.866025 0.5 -0.866025 0.5 864.794 1059.87)" fill="#242424" class="svg_key"/>
<rect width="840.77" height="540.68" transform="matrix(0.866025 0.5 -2.20305e-08 1 450.136 10.8518)" fill="#0A0A0A"/>
<rect width="801.965" height="483.766" rx="7.69264" transform="matrix(0.866025 0.5 -2.20305e-08 1 466.94 39.9557)" fill="black"/>
<rect id="svg_1" width="161.686" height="9.05444" rx="4.52722" transform="matrix(0.866025 0.5 -2.20305e-08 1 500.546 133.087)" fill="#05DCA8"/>
<rect id="svg_7" width="161.686" height="9.05444" rx="4.52722" transform="matrix(0.866025 0.5 -2.20305e-08 1 500.546 327.111)" fill="#7005DC"/>
<rect id="svg_8" width="161.686" height="9.05444" rx="4.52722" transform="matrix(0.866025 0.5 -2.20305e-08 1 662.975 420.889)" fill="#05DCA8"/>
<rect id="svg_3" width="76.316" height="9.05444" rx="4.52722" transform="matrix(0.866025 0.5 -2.20305e-08 1 500.546 197.762)" fill="#DCC605"/>
<rect id="svg_5" width="76.316" height="9.05444" rx="4.52722" transform="matrix(0.866025 0.5 -2.20305e-08 1 677.537 299.947)" fill="#7005DC"/>
<rect id="svg_4" width="76.316" height="9.05444" rx="4.52722" transform="matrix(0.866025 0.5 -2.20305e-08 1 589.042 248.854)" fill="#06CAF5"/>
<rect id="svg_2" width="76.316" height="9.05444" rx="4.52722" transform="matrix(0.866025 0.5 -2.20305e-08 1 662.975 226.865)" fill="#DCC605"/>
<rect id="svg_9" width="76.316" height="9.05444" rx="4.52722" transform="matrix(0.866025 0.5 -2.20305e-08 1 500.546 391.785)" fill="#05DCA8"/>
<rect id="svg_6" width="214.72" height="9.05444" rx="4.52722" transform="matrix(0.866025 0.5 -2.20305e-08 1 500.546 262.436)" fill="#06CAF5"/>
<rect id="svg_11" width="214.72" height="9.05444" rx="4.52722" transform="matrix(0.866025 0.5 -2.20305e-08 1 500.546 456.46)" fill="#7005DC"/>
<rect id="svg_10" width="214.72" height="9.05444" rx="4.52722" transform="matrix(0.866025 0.5 -2.20305e-08 1 589.042 442.878)" fill="#06CAF5"/>
<rect width="539.188" height="20.6959" transform="matrix(0.866025 -0.5 2.20305e-08 1 728.236 1227.72)" fill="#090909"/>
<rect width="840.894" height="20.6959" transform="matrix(0.866025 0.5 -2.20305e-08 1 0 807.275)" fill="#161616"/>
<rect width="840.164" height="20.236" transform="matrix(0.866025 0.5 -0.866025 0.5 467.621 0.711426)" fill="#232323"/>
<path d="M1177.08 431.237L1195.19 420.782L1195.19 958.233L1177.08 968.689L1177.08 431.237Z" fill="#080808"/>
<script><![CDATA[
  function shakeIt() {
      setTimeout(function() {
        document.getElementById('laptop-1').classList.add('is-active');
      }, 2000 );
  }
  shakeIt();
  setInterval(function() {
    shakeIt();
    document.getElementById('laptop-1').classList.remove('is-active');
  }, 8000);
  ]]></script>
</svg>
